<svg xmlns="http://www.w3.org/2000/svg" xmlns:xlink="http://www.w3.org/1999/xlink" version="1.1" x="0px" y="0px" viewBox="0 0 100 100" xml:space="default"><g><circle cx="50" cy="71.752" r="4.697"/><path d="M94.77,66.973l-0.03-0.103c-0.959-3.292-1.951-6.696-3.362-9.631c-3.021-6.229-5.406-10.872-7.269-14.151   c1.66-2.66,2.936-5.52,3.795-8.511c0.174-0.598,4.186-14.657-1.224-17.861c-1.326-0.802-2.775-0.497-5.195,0.011   c-2.688,0.57-5.05,1.563-9.03,3.796c-1.735,0.976-3.383,1.976-5.02,3.021c-3.33-1.96-7.124-3.271-11.103-3.932   c-0.18-0.077-0.378-0.119-0.586-0.119c-0.03,0-0.058,0.007-0.088,0.009c-1.795-0.264-3.619-0.411-5.452-0.413   c-0.067-0.009-0.134-0.021-0.204-0.021c-0.111,0-0.218,0.014-0.322,0.036c-5.994,0.076-12.005,1.559-17.114,4.44   c-1.638-1.045-3.286-2.045-5.022-3.022c-3.979-2.231-6.341-3.225-9.05-3.8c-2.398-0.504-3.846-0.808-5.164-0.012   c-5.419,3.21-1.407,17.27-1.234,17.862c0.86,2.995,2.136,5.855,3.796,8.516c-1.862,3.279-4.247,7.923-7.271,14.155   c-1.409,2.931-2.401,6.335-3.36,9.627l-0.03,0.104c-0.529,1.821-0.122,3.776,1.09,5.231c1.221,1.465,3.078,2.227,4.989,2.029   c2.392-0.244,5.404-0.446,9.606-0.093l2.168,0.177c5.03,0.409,6.642,0.54,11.281,1.445c1.904,1.618,4.465,3.587,7.732,5.038   c0.985,0.434,1.949,0.814,2.867,1.131c1.623,0.561,3.329,0.841,5.035,0.841s3.412-0.28,5.035-0.841   c0.918-0.316,1.882-0.697,2.871-1.133c3.264-1.45,5.824-3.418,7.729-5.036c4.64-0.905,6.251-1.036,11.281-1.445l2.169-0.177   c4.2-0.354,7.213-0.151,9.605,0.093c1.907,0.198,3.769-0.564,4.989-2.029C94.892,70.75,95.299,68.795,94.77,66.973z M34.499,55.978   c0-1.657,1.343-3,3-3s3,1.343,3,3s-1.343,3-3,3S34.499,57.635,34.499,55.978z M62.501,58.978c-1.657,0-3-1.343-3-3s1.343-3,3-3   s3,1.343,3,3S64.158,58.978,62.501,58.978z M91.375,70.285c-0.59,0.707-1.454,1.056-2.38,0.965   c-1.134-0.116-2.41-0.219-3.862-0.268c-0.312-0.615-0.628-1.259-0.964-1.95c-1.892-3.9-4.247-8.755-8.608-13.152   c-4.975-5.015-8.793-7.172-12.178-8.756c-0.675-0.315-1.393-0.475-2.133-0.475c-1.971,0-3.781,1.157-4.613,2.949l-3.255,7.021   c-1.117,2.41-0.188,5.293,2.115,6.563c2.221,1.226,3.901,2.463,5.138,3.783c1.982,2.117,3.083,4.277,3.819,6.002   c-0.171,0.062-0.335,0.143-0.474,0.263c-1.886,1.623-4.228,3.467-7.287,4.825c-0.91,0.401-1.797,0.751-2.637,1.041   c-2.653,0.916-5.458,0.917-8.113,0c-0.84-0.29-1.727-0.64-2.633-1.039c-3.063-1.36-5.405-3.204-7.291-4.827   c-0.051-0.044-0.112-0.074-0.169-0.111c0.024-0.067,0.048-0.127,0.072-0.195c0.612-1.724,1.308-3.678,3.443-5.958   c1.235-1.32,2.916-2.558,5.136-3.783c2.304-1.271,3.233-4.153,2.116-6.564l-3.255-7.02c-0.832-1.792-2.643-2.949-4.613-2.949   c-0.74,0-1.458,0.159-2.133,0.475c-3.385,1.584-7.203,3.741-12.178,8.756c-4.361,4.397-6.717,9.252-8.608,13.152   c-0.335,0.69-0.652,1.334-0.963,1.949c-1.452,0.049-2.729,0.153-3.863,0.269c-0.923,0.095-1.79-0.258-2.38-0.965   c-0.581-0.697-0.769-1.599-0.514-2.473l0.029-0.104c0.926-3.175,1.882-6.459,3.182-9.161c3.242-6.683,5.735-11.508,7.621-14.75   c0.287-0.493,0.269-1.106-0.047-1.583c-1.738-2.623-3.057-5.473-3.919-8.476c-1.884-6.482-1.94-13.369-0.108-14.455   c0.319-0.189,1.565,0.071,3.023,0.376c2.022,0.431,4.01,1.137,8.183,3.478c1.949,1.097,3.79,2.21,5.627,3.405   c0.045,0.029,0.093,0.048,0.139,0.072c0.023,0.012,0.046,0.025,0.07,0.036c0.068,0.03,0.137,0.053,0.208,0.073   c0.022,0.006,0.043,0.013,0.065,0.018c0.07,0.016,0.141,0.025,0.212,0.031c0.026,0.002,0.052,0.005,0.078,0.006   c0.067,0.002,0.134-0.002,0.2-0.009c0.031-0.003,0.062-0.005,0.093-0.01c0.065-0.011,0.129-0.028,0.192-0.048   c0.029-0.009,0.058-0.016,0.087-0.027c0.071-0.027,0.138-0.061,0.205-0.098c0.014-0.008,0.03-0.012,0.044-0.021   c4.495-2.72,9.835-4.195,15.206-4.451v7.043c0,0.828,0.672,1.5,1.5,1.5s1.5-0.672,1.5-1.5v-7.054   c0.919,0.035,1.835,0.099,2.743,0.206v1.62c0,0.828,0.672,1.5,1.5,1.5s1.5-0.672,1.5-1.5v-1.122   c3.399,0.724,6.624,1.969,9.433,3.762c0.25,0.159,0.529,0.235,0.806,0.235c0.346,0,0.682-0.126,0.954-0.351   c1.791-1.161,3.587-2.249,5.486-3.317c4.175-2.342,6.162-3.048,8.198-3.48c1.446-0.304,2.692-0.562,3.02-0.368   c1.822,1.08,1.766,7.967-0.119,14.454c-0.861,2.998-2.18,5.848-3.918,8.471c-0.315,0.477-0.334,1.09-0.047,1.583   c1.886,3.242,4.379,8.067,7.619,14.746c1.302,2.706,2.258,5.99,3.184,9.165l0.029,0.103C92.144,68.687,91.956,69.588,91.375,70.285   z"/><path d="M18.069,22.578c-0.263-0.087-0.545-0.064-0.788,0.064c-0.242,0.129-0.421,0.352-0.494,0.615   c-0.47,1.688-0.337,5.357,1.018,9.755c0.781,2.539,1.711,4.549,2.84,6.144c0.184,0.259,0.479,0.415,0.795,0.422   c0.007,0,0.015,0,0.021,0c0.309,0,0.601-0.143,0.791-0.388l6.806-8.785c0.305-0.394,0.273-0.951-0.073-1.309   C26.188,26.215,22.72,24.144,18.069,22.578z"/><path d="M82.839,23.258c-0.073-0.264-0.252-0.486-0.494-0.615c-0.244-0.128-0.524-0.149-0.788-0.064   c-4.651,1.565-8.119,3.637-10.915,6.519c-0.347,0.357-0.378,0.915-0.073,1.309l6.806,8.785c0.19,0.245,0.482,0.388,0.791,0.388   c0.007,0,0.015,0,0.021,0c0.316-0.007,0.611-0.163,0.795-0.422c1.128-1.593,2.057-3.602,2.84-6.143   C83.176,28.615,83.309,24.945,82.839,23.258z"/></g></svg>
